HIERARCHY
ROOT Hips
{
  OFFSET -125.086 92.215 135.881
  CHANNELS 6 Xposition Yposition Zposition Zrotation Xrotation Yrotation
  JOINT LeftUpLeg
  {
    OFFSET 8.64259 1.95398 -2.38835
    CHANNELS 3 Zrotation Xrotation Yrotation
    JOINT LeftLeg
    {
      OFFSET 43.7702 0 0
      CHANNELS 3 Zrotation Xrotation Yrotation
      JOINT LeftFoot
      {
        OFFSET 40.6238 0 0
        CHANNELS 3 Zrotation Xrotation Yrotation
        JOINT LeftToeBase
        {
          OFFSET 12.7242 0 0
          CHANNELS 3 Zrotation Xrotation Yrotation
          End Site
          {
            OFFSET 0 0 0
          }
        }
      }
    }
  }
  JOINT RightUpLeg
  {
    OFFSET -8.2249 1.95398 -2.59336
    CHANNELS 3 Zrotation Xrotation Yrotation
    JOINT RightLeg
    {
      OFFSET 43.5653 0 0
      CHANNELS 3 Zrotation Xrotation Yrotation
      JOINT RightFoot
      {
        OFFSET 40.6238 0 0
        CHANNELS 3 Zrotation Xrotation Yrotation
        JOINT RightToeBase
        {
          OFFSET 12.7242 0 0
          CHANNELS 3 Zrotation Xrotation Yrotation
          End Site
          {
            OFFSET 0 0 0
          }
        }
      }
    }
  }
  JOINT Spine
  {
    OFFSET 0.165834 0.87714 6.61349
    CHANNELS 3 Zrotation Xrotation Yrotation
    JOINT Spine1
    {
      OFFSET 7.38963 1.71661e-005 0
      CHANNELS 3 Zrotation Xrotation Yrotation
      JOINT Spine2
      {
        OFFSET 11.9445 1.14441e-005 0
        CHANNELS 3 Zrotation Xrotation Yrotation
        JOINT Spine3
        {
          OFFSET 14.7254 4.19617e-005 0
          CHANNELS 3 Zrotation Xrotation Yrotation
          JOINT Spine4
          {
            OFFSET 10.9679 0 0
            CHANNELS 3 Zrotation Xrotation Yrotation
            JOINT RightShoulder
            {
              OFFSET 2.46616 -1.6653 3.69651
              CHANNELS 3 Zrotation Xrotation Yrotation
              JOINT RightArm
              {
                OFFSET 13.0012 0 0
                CHANNELS 3 Zrotation Xrotation Yrotation
                JOINT RightForeArm
                {
                  OFFSET 28.7848 1.52588e-005 0
                  CHANNELS 3 Zrotation Xrotation Yrotation
                  JOINT RightHand
                  {
                    OFFSET 26.5688 1.52588e-005 0
                    CHANNELS 3 Zrotation Xrotation Yrotation
                    End Site
                    {
                      OFFSET 0 0 0
                    }
                  }
                }
              }
            }
            JOINT LeftShoulder
            {
              OFFSET 2.38034 -1.29275 -3.7523
              CHANNELS 3 Zrotation Xrotation Yrotation
              JOINT LeftArm
              {
                OFFSET 16.3182 6.10352e-005 0
                CHANNELS 3 Zrotation Xrotation Yrotation
                JOINT LeftForeArm
                {
                  OFFSET 27.0901 0 0
                  CHANNELS 3 Zrotation Xrotation Yrotation
                  JOINT LeftHand
                  {
                    OFFSET 24.5451 1.52588e-005 0
                    CHANNELS 3 Zrotation Xrotation Yrotation
                    End Site
                    {
                      OFFSET 0 0 0
                    }
                  }
                }
              }
            }
            JOINT Neck
            {
              OFFSET 5.0226 -0.0266342 0
              CHANNELS 3 Zrotation Xrotation Yrotation
              JOINT Head
              {
                OFFSET 6.69363 2.86102e-005 0
                CHANNELS 3 Zrotation Xrotation Yrotation
                End Site
                {
                  OFFSET 0 0 0
                }
              }
            }
          }
        }
      }
    }
  }
}
MOTION
Frames:	7
Frame Time:	0.0416667
211.722 95.9051 -221.697 -98.4953 -55.3766 -94.3688 -173.993 -10.1079 93.5197 -36.8151 29.2165 10.5959 59.6635 3.47582 5.94672 63.6367 -1.83192 6.00263 176.261 18.0063 88.3808 -8.3918 -2.26727 0.849192 41.7035 5.38218 19.1141 32.8091 0.197507 -12.9922 -0.56909 7.66248 -90.4761 11.5439 -1.35489 -0.809449 -0.126556 -1.38916 -0.749053 -22.6634 -1.04897 -1.17924 -2.65077 -1.04898 -1.17924 112.219 -53.2891 -67.1472 31.4402 8.21701 4.6641 -3.49494 -43.395 -9.92723 -4.2251 -0.249413 1.9507 -72.7636 -49.5284 104.635 -34.19 8.53357 -41.3335 17.4467 50.326 -31.2541 0.704049 -0.2691 -11.0124 8.12507 0.268127 -5.04465 -21.3639 -0.0497928 8.85309 
203.725 95.5701 -214.58 -98.2414 -53.6696 -91.4391 -176.479 -6.30575 96.2453 -46.5312 16.637 9.50597 47.4097 -2.92148 -3.79299 67.8555 -3.8329 -2.07573 175.78 22.241 92.326 -29.4734 -6.8505 1.91968 51.1762 3.66319 13.297 34.4073 -0.74065 -3.04005 -0.582441 7.69875 -90.9551 11.4594 -1.60487 -1.73898 -0.211691 -1.67985 -1.66667 -22.7411 -1.00817 -2.14078 -2.72844 -1.00818 -2.14078 110.966 -51.7481 -68.7605 32.82 9.20189 1.34491 -2.04863 -42.4307 -6.49374 -3.84789 -0.201653 1.0552 -72.7989 -50.2444 104.517 -38.496 4.51773 -36.695 13.0334 57.8925 -19.1502 2.32546 -0.430324 -11.752 8.39036 1.35289 -4.10636 -21.6829 0.606898 10.0988 
196.252 95.9301 -208.092 -98.8727 -55.0488 -91.9747 -179.81 3.99713 94.5005 -63.5959 10.8537 7.61056 47.8215 -1.32591 4.36917 60.7737 -2.53593 1.18797 174.948 17.7263 93.2252 -35.0299 -5.80464 3.04262 60.7367 0.52707 10.5254 35.9436 -1.06356 -1.38263 -0.487618 7.75746 -91.0142 11.3422 -1.44294 -1.87528 -0.329243 -1.52405 -1.80998 -22.8561 -0.812791 -2.22209 -2.84343 -0.812784 -2.22209 111.293 -52.1549 -68.3346 32.0343 6.14711 -1.65383 -1.86846 -36.4421 -9.15095 -6.39633 -0.353747 1.40666 -73.2326 -50.039 103.878 -44.0511 0.097242 -35.5741 0.605658 69.3968 2.34688 -3.3211 0.0589365 -9.03013 7.37675 0.476322 -3.95626 -21.4171 0.00972847 8.13757 
189.132 97.1284 -201.476 -98.4432 -53.1283 -93.5966 -178.009 15.2188 89.5073 -62.8922 8.40958 4.25733 54.3532 3.44356 7.769 60.0876 -2.05702 3.92395 175.129 10.8497 91.9135 -33.9126 -5.29089 1.97874 65.0028 0.304419 13.2236 35.3109 -1.04325 0.522348 0.000922711 7.81806 -90.7726 11.2356 -0.357712 -1.50388 -0.436167 -0.423546 -1.48668 -22.9642 0.11075 -1.54185 -2.95159 0.110747 -1.54185 111.904 -52.6628 -67.5049 29.6139 1.50442 -5.20954 -3.70374 -32.1511 -17.1303 -9.30481 -0.54838 1.73246 -73.0233 -50.3962 104.166 -45.6464 -5.77051 -31.0268 5.91563 78.2675 0.0420893 -7.4141 0.193009 -11.0206 6.33179 -0.279719 -4.31087 -20.4681 -0.465793 6.97992 
182.667 97.6464 -195.095 -97.5549 -50.6223 -94.0245 -177.123 19.2259 87.3097 -41.9808 7.36119 1.45375 57.1097 4.85389 4.76833 62.3092 -0.350453 14.0052 174.676 3.60671 90.9173 -30.574 -4.65538 1.16862 66.8205 0.97566 17.0517 36.8363 -1.26243 0.275849 0.317108 7.91397 -90.5925 11.0464 0.356584 -1.21329 -0.62512 0.302838 -1.22782 -23.1571 0.704709 -1.05007 -3.14442 0.704727 -1.05006 111.31 -51.9098 -68.2673 28.3394 -2.15997 -9.63258 -4.5432 -25.734 -24.5073 -10.5089 -0.490008 0.251899 -72.5138 -50.9574 104.884 -41.4992 -9.61642 -23.8111 4.98814 72.9024 0.0256452 -4.43235 0.0495886 -12.1523 7.57162 -0.431038 -3.77366 -20.9604 -0.584593 6.16744 
176.603 97.2368 -188.886 -93.6472 -48.0502 -90.1962 -178.65 19.2083 88.1757 -9.85601 9.17271 0.712809 51.6378 1.34209 6.21564 50.4576 -1.08861 10.4738 175.046 -0.361416 91.6972 -28.4867 -4.30378 0.724406 68.0898 0.327508 18.5874 39.5029 -1.6848 0.299221 0.590408 7.80489 -90.6195 11.2677 0.886677 -1.32121 -0.403701 0.827692 -1.35896 -22.9378 1.24274 -0.993674 -2.92516 1.24276 -0.993673 110.645 -51.4519 -69.202 26.3656 -4.5161 -16.0724 -5.97188 -24.0467 -29.3607 -11.3967 -0.549005 0.427955 -72.5528 -50.8001 104.839 -40.6836 -14.4204 -18.7628 7.21107 73.1923 0.0377024 -4.29149 0.00398285 -9.81379 7.79573 -0.518981 -4.50422 -19.2585 -0.653003 7.857 
170.188 95.833 -181.984 -93.4531 -44.3587 -89.2191 -179.164 22.633 89.6471 -6.45373 11.5939 2.16957 53.7472 -0.233636 4.45524 47.8351 -1.15987 8.9658 174.785 -4.87489 90.8038 -30.451 -10.8233 -0.329849 66.0081 -0.30675 17.9724 50.167 -3.13355 1.74208 0.83605 7.96386 -90.5529 10.9517 1.40854 -1.23361 -0.719101 1.3529 -1.29441 -23.2582 1.71415 -0.75321 -3.24554 1.71416 -0.753208 109.581 -51.1111 -70.7723 26.1686 -5.92447 -21.4381 -7.36182 -24.2908 -32.2742 -12.9812 -0.633388 0.51367 -72.0561 -51.0945 105.557 -42.5263 -21.0126 -19.6646 14.2847 79.9441 0.122978 -7.3094 0.217803 -11.5778 10.0675 -0.0845748 -4.60048 -20.4601 -0.136869 7.46856 
